# xmcd CD database file
#
# Track frame offsets:
#	150
#	13680
#	39555
#	64575
#	76830
#	88995
#	101583
#	109455
#	132975
#
# Disc length: 1934 seconds
#
# Revision: 2
# Processed by: cddbd v1.5.2PL0 Copyright (c) Steve Scherf et al.
# Submitted via: CDex 1.70beta2
#
DISCID=73078c09
DTITLE=Silver Forest - 東方萃奏楽
DYEAR=2007
DGENRE=東方アレンジ
TTITLE0=Eternal moon [エクステンドアッシュ ～ 蓬莱人]
TTITLE1=Diamond blizzard [おてんば恋娘]
TTITLE2=風の詩 [風神少女 and 鳥の詩]
TTITLE3=東方萃奏楽 [東方萃夢想]
TTITLE4=cross
TTITLE5=technical difficulties [月時計　～ ルナ・ダイアル]
TTITLE6=御伽の国の鬼ヶ島 [御伽の国の鬼が島　～ Missing Power]
TTITLE7=Missing Power
TTITLE8=つるぺったん [竹取飛翔 ～ Lunatic Princess]
EXTD=YEAR: 2007
EXTT0=
EXTT1=
EXTT2=
EXTT3=
EXTT4=
EXTT5=
EXTT6=
EXTT7=
EXTT8=
PLAYORDER=
